<svg id="visual" viewBox="0 0 900 600" width="900" height="600" xmlns="http://www.w3.org/2000/svg" xmlns:xlink="http://www.w3.org/1999/xlink" version="1.1"><rect x="0" y="0" width="900" height="600" fill="#FFFFFF"></rect><defs><linearGradient id="grad1_0" x1="33.3%" y1="0%" x2="100%" y2="100%"><stop offset="20%" stop-color="#ffffff" stop-opacity="1"></stop><stop offset="80%" stop-color="#ffffff" stop-opacity="1"></stop></linearGradient></defs><defs><linearGradient id="grad2_0" x1="0%" y1="0%" x2="66.7%" y2="100%"><stop offset="20%" stop-color="#ffffff" stop-opacity="1"></stop><stop offset="80%" stop-color="#ffffff" stop-opacity="1"></stop></linearGradient></defs><g transform="translate(900, 0)"><path d="M0 418C-64.3 439 -128.7 459.9 -183.3 442.5C-238 425.2 -282.9 369.4 -318.2 318.2C-353.5 267 -379.1 220.3 -405.6 168C-432.1 115.7 -459.4 57.9 -486.7 0L0 0Z" fill="#e2edf1"></path></g><g transform="translate(0, 600)"><path d="M0 -449C44.7 -414.3 89.4 -379.7 153.5 -370.5C217.6 -361.3 301.1 -377.5 344.2 -344.2C387.3 -310.8 390 -227.9 391.7 -162.3C393.5 -96.6 394.2 -48.3 395 0L0 0Z" fill="#e2edf1"></path></g></svg>