<?xml version="1.0" encoding="UTF-8"?>
<svg id="Layer_1" data-name="Layer 1" xmlns="http://www.w3.org/2000/svg" viewBox="0 0 674.87 557.48">
  <defs>
    <style>
      .cls-1 {
        fill: #205d65;
      }
    </style>
  </defs>
  <path class="cls-1" d="M601.52,0H73.35C32.87,0,0,32.87,0,73.35V366.74c0,40.47,32.87,73.35,73.35,73.35h44.04v102.81c0,5.89,3.57,11.16,8.99,13.49,1.86,.78,3.72,1.09,5.74,1.09,3.72,0,7.44-1.4,10.24-4.19l113.2-113.2h345.96c40.47,0,73.35-32.87,73.35-73.35V73.35c0-40.47-32.87-73.35-73.35-73.35Zm-44.04,322.86H117.39c-8.06,0-14.73-6.67-14.73-14.73s6.67-14.73,14.73-14.73h440.09c8.06,0,14.73,6.67,14.73,14.73s-6.67,14.73-14.73,14.73Zm0-88.08H117.39c-8.06,0-14.73-6.51-14.73-14.73s6.67-14.58,14.73-14.58h440.09c8.06,0,14.73,6.51,14.73,14.58s-6.67,14.73-14.73,14.73Zm0-88.08H117.39c-8.06,0-14.73-6.51-14.73-14.58s6.67-14.73,14.73-14.73h440.09c8.06,0,14.73,6.51,14.73,14.73s-6.67,14.58-14.73,14.58Z"/>
</svg>