<?xml version="1.0" encoding="utf-8"?>
<svg viewBox="0 0 1920.183 1075.636" xmlns="http://www.w3.org/2000/svg">
  <defs>
    <clipPath id="clip-path">
      <path id="Path_199" data-name="Path 199" d="M-533.031,278.516s95.269,204.193,401.21,161.147,419.656-32.1,544.188,96.892,343.977,107.54,572.909,67.066,360.19,68.158,401.79,142.968c.041-2.4-.074-1075.621-.074-1075.621l-1920,.011Z" transform="translate(533 329)" fill="url(#linear-gradient)"/>
    </clipPath>
    <linearGradient id="linear-gradient" x1="0.5" x2="0.5" y2="1" gradientUnits="objectBoundingBox">
      <stop offset="0" stop-color="#1F5C64"/>
      <stop offset="1" stop-color="#1F5C64"/>
    </linearGradient>
  </defs>
  <g id="Group_112" data-name="Group 112" transform="matrix(1, 0, 0, 1, 0.089, 0.042)">
    <path id="Path_195" data-name="Path 195" d="M -533.089 278.364 C -533.089 278.364 -432.659 518.308 -131.883 469.841 C 168.893 421.374 460.835 405.473 556.397 510.837 C 651.959 616.201 892.41 647.036 1121.306 605.081 C 1350.202 563.126 1349.9 678.95 1387.094 746.594 C 1387.11 746.61 1386.721 -329.015 1386.721 -329.015 L -533.045 -329.042 L -533.089 278.364 Z" transform="translate(533 329)" opacity="0.11" style="fill: rgb(16, 79, 88); paint-order: fill;"/>
    <g id="Mask_Group_6" data-name="Mask Group 6" clip-path="url(#clip-path)">
      <path id="Path_4" data-name="Path 4" d="M-496.368,321.285S-322.126-70.761,321.065,66.253s869.415,77.467,1056.161-463.982" transform="translate(522 366.416)" fill="none" stroke-width="128" opacity="0.14" style=""/>
    </g>
  </g>
</svg>