<svg id="visual" viewBox="0 0 900 600" width="900" height="600" xmlns="http://www.w3.org/2000/svg" xmlns:xlink="http://www.w3.org/1999/xlink" version="1.1"><rect x="0" y="0" width="900" height="600" fill="#FFFFFF"></rect><path d="M0 226L37.5 235.3C75 244.7 150 263.3 225 275.2C300 287 375 292 450 291.8C525 291.7 600 286.3 675 274.2C750 262 825 243 862.5 233.5L900 224L900 601L862.5 601C825 601 750 601 675 601C600 601 525 601 450 601C375 601 300 601 225 601C150 601 75 601 37.5 601L0 601Z" fill="#e2edf1" stroke-linecap="round" stroke-linejoin="miter"></path></svg>