<?xml version="1.0" encoding="UTF-8"?>
<svg id="Layer_1" data-name="Layer 1" xmlns="http://www.w3.org/2000/svg" viewBox="0 0 4345.45 1042.74">
  <defs>
    <style>
      .cls-1 {
        fill: #205d65;
      }

      .cls-2 {
        fill: #74acb3;
      }
    </style>
  </defs>
  <g>
    <path class="cls-1" d="M1621.3,718.9l-80.42,197.53c-13.86,33.3-25.03,55.7-33.51,67.19-8.49,11.51-17.88,17.26-28.15,17.26s-18.55-4.64-26.14-13.95c-4.93-5.87-16.2-27.41-33.84-64.62-17.66-37.19-32.28-70.24-43.89-99.13l-88.46-218.09c-12.06-30.35-24.8-45.53-38.2-45.53-14.31,0-22.11,12.98-23.46,38.92-3.13,57.77-4.69,111.14-4.69,160.08s2.23,85.44,6.7,103.54c3.12,10.78,7.25,18.62,12.4,23.5,5.13,4.9,19.1,13.71,41.88,26.44,14.74,8.33,22.11,22.76,22.11,43.33,0,54.84-64.12,82.24-192.33,82.24-108.13,0-162.18-26.67-162.18-80.04,0-13.7,2.78-23.61,8.38-29.74,5.58-6.11,19.99-15.29,43.22-27.54,14.74-7.34,24.68-17.37,29.82-30.11,5.13-12.72,9.48-37.45,13.07-74.17,4.02-39.16,7.81-103.41,11.39-192.76,3.57-89.33,5.36-165.83,5.36-229.48,0-79.78-5.6-133.89-16.75-162.29-4.02-9.78-8.61-17.13-13.74-22.03-5.14-4.88-14.86-11.25-29.15-19.09-31.73-16.63-47.58-38.18-47.58-64.62,0-17.13,5.91-32.79,17.76-47,11.83-14.19,27.58-24.23,47.25-30.11,19.65-6.35,45.91-11.86,78.74-16.52,32.84-4.64,60.65-6.98,83.43-6.98,57.18,0,97.61,5.14,121.3,15.42,11.61,4.9,20.77,11.51,27.48,19.83,6.7,8.33,16.3,25.46,28.82,51.4l139.39,281.25c15.18,30.84,25.68,49.7,31.5,56.54,5.8,6.87,13.84,10.28,24.13,10.28,8.93,0,16.85-3.67,23.79-11.01,6.92-7.34,15.08-21.04,24.46-41.12l94.49-201.94c11.61-25.94,19.2-42.83,22.79-50.67,21.88-48.94,43.56-81.51,65-97.67,27.24-21.04,76.83-31.58,148.77-31.58,126.42,0,189.65,31.58,189.65,94.73,0,14.21-2.46,25.59-7.37,34.15-4.93,8.57-14.98,18.98-30.16,31.21-20.56,17.15-33.51,41.86-38.87,74.17-10.29,67.56-15.41,149.8-15.41,246.73,0,124.83,5.36,234.25,16.08,328.24,2.68,23.02,6.8,38.68,12.4,47,5.58,8.33,19.99,20.82,43.22,37.45,16.08,11.75,24.13,27.43,24.13,47,0,34.27-20.77,58.51-62.32,72.7-21.44,7.82-44.01,12.96-67.69,15.42-23.69,2.44-60.1,3.67-109.23,3.67-75.51,0-131.8-5.87-168.88-17.62-41.11-13.22-61.65-35.72-61.65-67.56,0-11.75,2.68-21.41,8.04-29.01,5.36-7.58,19.2-21.41,41.55-41.49,11.61-10.28,19.53-30.11,23.79-59.48,4.24-29.37,6.37-79.31,6.37-149.8,0-39.16-1.68-64.86-5.03-77.1-3.35-12.23-10.39-18.36-21.11-18.36-12.52,0-24.58,9.44-36.19,28.27-11.63,18.85-29.05,56.43-52.27,112.72Z"/>
    <path class="cls-1" d="M3153.26,387.72v179.17c0,108.2-7.37,184.81-22.11,229.84-31.73,94.98-101.43,163.75-209.09,206.34-65.24,26.44-138.96,39.65-221.15,39.65-143.41,0-258.24-37.45-344.46-112.35-42-36.72-71.04-79.31-87.12-127.77-16.08-48.47-24.13-118.46-24.13-210.02,0-35.72,1.11-94.47,3.35-176.24,1.34-57.75,2.01-95.94,2.01-114.55,0-40.63-2.8-68.77-8.38-84.45-5.6-15.66-17.76-30.35-36.52-44.06-29.49-21.04-44.23-44.54-44.23-70.5,0-19.09,7.47-35.98,22.45-50.67,14.96-14.69,34.73-24.71,59.31-30.11,49.14-10.76,107.22-16.16,174.24-16.16,73.72,0,134.92,6.13,183.62,18.36,47.8,11.75,71.71,38.44,71.71,80.04,0,20.56-6.94,36.97-20.77,49.2-3.13,2.94-16.54,10.54-40.21,22.76-14.31,6.87-24.02,19.35-29.15,37.45-5.14,18.12-7.71,47.99-7.71,89.59s-1.79,134.64-5.36,276.11c-2.25,84.21,18.53,148.33,62.32,192.39,35.74,36.24,81.76,54.34,138.05,54.34,35.74,0,68.12-7.21,97.17-21.66,29.03-14.43,51.15-34.15,66.34-59.11,12.06-19.09,20.32-40.39,24.8-63.89,4.46-23.5,6.7-55.55,6.7-96.2v-161.55c-2.25-123.84-5.48-196.43-9.72-217.73-4.26-21.3-18.66-38.06-43.22-50.3-23.24-11.25-39.1-21.53-47.58-30.84-8.49-9.29-12.73-20.8-12.73-34.51,0-29.37,15.97-50.78,47.92-64.25,31.93-13.46,83.2-20.19,153.8-20.19s119.39,6.61,150.45,19.83c31.04,13.22,46.58,34.27,46.58,63.15,0,14.21-2.68,24.73-8.04,31.58-5.36,6.87-19.43,17.39-42.22,31.58-23.69,14.69-37.19,30.47-40.54,47.36-3.35,16.89-5.48,79.67-6.37,188.35Z"/>
    <path class="cls-1" d="M3811.35,0c58.52,0,113.69,9.07,165.53,27.17,23.22,8.33,39.09,12.48,47.58,12.48,8.93,0,27.69-5.62,56.29-16.89,9.38-3.41,18.98-5.14,28.82-5.14,25.01,0,48.92,16.16,71.71,48.47,36.62,51.9,54.95,108.68,54.95,170.36,0,42.11-9.72,76.13-29.15,102.07-19.43,25.96-45.02,38.92-76.73,38.92-25.92,0-51.38-10.28-76.4-30.84-7.61-6.35-26.14-29.37-55.62-69.03-49.16-66.09-105.67-99.13-169.55-99.13-58.09,0-104.21,23.26-138.39,69.76-34.18,46.52-51.27,109.18-51.27,187.99,0,117.01,27.24,216.63,81.76,298.87,20.54,29.87,45.12,53.73,73.72,71.6,28.58,17.88,56.96,26.8,85.11,26.8,23.22,0,42.32-8.44,57.3-25.33,14.96-16.89,22.45-38.55,22.45-64.99,0-23.5-6.27-40.13-18.76-49.93-4.93-3.91-9.5-6.24-13.74-6.98-4.26-.73-17.09-1.1-38.53-1.1-19.22,0-35.18-6.72-47.92-20.19-12.73-13.46-19.1-30.47-19.1-51.04,0-40.63,24.56-69.5,73.72-86.65,54.05-18.6,116.37-27.9,186.97-27.9,75.49,0,138.94,8.57,190.32,25.7,48.69,16.65,73.05,46.76,73.05,90.32,0,17.62-5.6,32.93-16.75,45.9-11.17,12.98-25.7,20.69-43.56,23.13-15.65,2.46-25.8,6.24-30.49,11.38-4.69,5.14-9.5,17.75-14.41,37.82-19.22,77.84-56.74,142.95-112.59,195.33-38.43,35.74-84.77,63.65-139.06,83.71-54.28,20.07-111.36,30.11-171.22,30.11-97.84,0-187.64-24.71-269.4-74.17-84-50.41-147.89-120.91-191.66-211.49-36.64-75.38-54.95-156.89-54.95-244.53s21.88-172.8,65.67-252.61c46.46-85.66,111.46-151.75,195.01-198.27C3634.86,20.56,3717.96,0,3811.35,0Z"/>
  </g>
  <path class="cls-2" d="M782.11,363.21s67.44-100.68-61.69-235.19C631.27,48.44,513.19,0,383.68,0,241.71,0,103.2,51.71,30.53,160.25c-54.05,80.73-28.21,151.17,14.79,198.29,36.21,39.68,34.02,55.41,54.05,91.07,18.03,32.1,61.7,164.73,118.3,200.05,0,0-81.46-203.96,201.54-238.78,0,0-22.05-36.2-206.89-41.63-177.77-5.22-182.29-88.17-171.83-129.29,17.01-66.91,148.63-127.15,313.84-62.06,52.89,20.84,100.26,44.05,141.3,67.33-34.25,23.93-126.9,18.63-126.9,18.63,64.59,59.65,172.32,44.04,212.03,35.64,40.51,29.18,68.57,55.23,82.05,72.65,31.61,40.87,129.51,125.63,149.91,87.29,20.4-38.35-30.59-96.24-30.59-96.24Z"/>
  <path class="cls-1" d="M35.41,679.53s-67.44,100.68,61.69,235.19c89.15,79.57,207.22,128.02,336.73,128.02,141.97,0,280.48-51.71,353.15-160.25,54.05-80.73,28.21-151.17-14.79-198.29-36.21-39.68-34.02-55.41-54.05-91.07-18.03-32.1-61.7-164.73-118.3-200.05,0,0,81.46,203.96-201.54,238.78,0,0,22.05,36.2,206.89,41.63,177.77,5.22,182.29,88.17,171.83,129.29-17.01,66.91-148.63,127.15-313.84,62.06-52.89-20.84-100.26-44.05-141.3-67.33,34.25-23.93,126.9-18.63,126.9-18.63-64.59-59.65-172.32-44.04-212.03-35.64-40.51-29.18-68.57-55.23-82.05-72.65-31.61-40.87-129.51-125.63-149.91-87.29-20.4,38.35,30.59,96.24,30.59,96.24Z"/>
</svg>